<svg width="167" height="30" viewBox="0 0 167 30" fill="none" xmlns="http://www.w3.org/2000/svg">
<path d="M0.214117 0.841998H8.40412V23.228H24.3161V29H0.214117V0.841998ZM34.9323 14.921C34.9323 16.169 35.0753 17.339 35.3613 18.431C35.6473 19.523 36.1023 20.485 36.7263 21.317C37.3763 22.123 38.2343 22.773 39.3003 23.267C40.3663 23.735 41.6793 23.969 43.2393 23.969C44.7993 23.969 46.1123 23.735 47.1783 23.267C48.2443 22.773 49.0893 22.123 49.7133 21.317C50.3633 20.485 50.8313 19.523 51.1173 18.431C51.4033 17.339 51.5463 16.169 51.5463 14.921C51.5463 13.673 51.4033 12.503 51.1173 11.411C50.8313 10.319 50.3633 9.37 49.7133 8.564C49.0893 7.732 48.2443 7.082 47.1783 6.614C46.1123 6.12 44.7993 5.873 43.2393 5.873C41.6793 5.873 40.3663 6.12 39.3003 6.614C38.2343 7.082 37.3763 7.732 36.7263 8.564C36.1023 9.37 35.6473 10.319 35.3613 11.411C35.0753 12.503 34.9323 13.673 34.9323 14.921ZM26.5083 14.921C26.5083 12.789 26.8203 10.826 27.4443 9.032C28.0943 7.212 29.0953 5.639 30.4473 4.313C31.7993 2.987 33.5283 1.96 35.6343 1.232C37.7663 0.477998 40.3013 0.100998 43.2393 0.100998C46.1773 0.100998 48.6993 0.477998 50.8053 1.232C52.9373 1.96 54.6793 2.987 56.0313 4.313C57.3833 5.639 58.3713 7.212 58.9953 9.032C59.6453 10.826 59.9703 12.789 59.9703 14.921C59.9703 17.053 59.6453 19.029 58.9953 20.849C58.3713 22.643 57.3833 24.203 56.0313 25.529C54.6793 26.855 52.9373 27.895 50.8053 28.649C48.6993 29.377 46.1773 29.741 43.2393 29.741C40.3013 29.741 37.7663 29.377 35.6343 28.649C33.5283 27.895 31.7993 26.855 30.4473 25.529C29.0953 24.203 28.0943 22.643 27.4443 20.849C26.8203 19.029 26.5083 17.053 26.5083 14.921ZM64.3722 0.841998H72.5622V29H64.3722V0.841998ZM100.378 6.614H89.5363V0.841998H119.41V6.614H108.568V29H100.378V6.614ZM135.591 6.302L129.819 18.197H141.168L135.591 6.302ZM131.067 0.841998H140.856L155.481 29H146.316L143.664 23.423H127.284L124.554 29H116.13L131.067 0.841998ZM158.371 0.841998H166.561V29H158.371V0.841998Z" fill="black"/>
</svg>
